<?xml version="1.0"?>
<svg width="493" height="589" xmlns="http://www.w3.org/2000/svg" xmlns:svg="http://www.w3.org/2000/svg" xml:space="preserve">
 <defs>
  <linearGradient id="fill0" spreadMethod="reflect" x1="0.49" x2="0.49" y1="1.38" y2="-0.36">
   <stop offset="0" stop-color="#006A96"/>
   <stop offset="0.5" stop-color="#009AD9"/>
   <stop offset="1" stop-color="#00B8FF"/>
  </linearGradient>
 </defs>
 <g class="layer">
  <title>Layer 1</title>
  <g id="svg_1">
   <path d="m375.8,117.24c7.43,0 14.86,0.57 22.29,1.7c7.42,1.13 14.37,2.67 20.83,4.61c6.46,1.94 12.19,4.12 17.19,6.54c5.01,2.43 8.32,4.45 9.93,6.07c1.62,1.61 2.71,2.99 3.27,4.12c0.57,1.13 1.05,2.63 1.45,4.49c0.41,1.86 0.69,4.2 0.85,7.03c0.16,2.83 0.24,6.35 0.24,10.56c0,4.69 -0.12,8.65 -0.36,11.88c-0.25,3.24 -0.65,5.91 -1.22,8.01c-0.56,2.1 -1.37,3.64 -2.42,4.61c-1.05,0.97 -2.46,1.45 -4.24,1.45c-1.77,0 -4.6,-1.13 -8.48,-3.39c-3.87,-2.26 -8.63,-4.73 -14.28,-7.4c-5.66,-2.67 -12.19,-5.09 -19.62,-7.27c-7.43,-2.19 -15.58,-3.28 -24.46,-3.27c-6.95,0 -13,0.85 -18.17,2.55c-5.17,1.69 -9.49,4.04 -12.96,7.03c-3.47,2.99 -6.06,6.59 -7.75,10.8c-1.7,4.2 -2.55,8.65 -2.55,13.34c0,6.96 1.9,12.98 5.69,18.07c3.8,5.1 8.88,9.63 15.26,13.59c6.38,3.96 13.6,7.68 21.68,11.15c8.07,3.48 16.3,7.16 24.7,11.04c8.39,3.88 16.63,8.28 24.7,13.22c8.08,4.93 15.26,10.83 21.56,17.7c6.29,6.87 11.38,14.96 15.25,24.26c3.88,9.3 5.81,20.25 5.81,32.87c0,16.49 -3.07,30.97 -9.21,43.42c-6.14,12.46 -14.45,22.85 -24.95,31.18c-10.5,8.33 -22.77,14.6 -36.82,18.81l-19.51,2.73l5.02,-55.43l6.14,-3.1c4.28,-3.4 7.55,-7.6 9.81,-12.61c2.26,-5.02 3.4,-10.6 3.4,-16.74c0,-7.12 -1.94,-13.22 -5.81,-18.32c-3.88,-5.09 -8.92,-9.62 -15.14,-13.58c-6.22,-3.96 -13.28,-7.68 -21.19,-11.16c-7.91,-3.47 -16.07,-7.15 -24.46,-11.03l-13.24,-7.16l-47.34,-110.42l2.35,-11.11c5.57,-11.4 13.08,-20.86 22.52,-28.39c9.45,-7.52 20.59,-13.14 33.43,-16.86c12.84,-3.72 26.44,-5.58 40.81,-5.59z" fill="#12E017" fill-rule="evenodd" id="svg_2" stroke="#00B050" stroke-miterlimit="8" stroke-width="4.58"/>
   <path d="m177.32,125.01l32.88,0l101.08,238.92c13.57,32.03 21.95,49.35 25.16,51.94c3.2,2.6 12.33,4.27 27.39,5.01l0,20.35c-22.35,-1.04 -45.31,-1.57 -68.86,-1.57c-25.78,0 -50.3,0.53 -73.55,1.57l0,-20.35c18.04,-0.45 28.36,-1.45 30.97,-3c2.61,-1.56 3.91,-3.81 3.91,-6.78c0,-3.85 -3.13,-13.48 -9.39,-28.89l-73.23,-178.22l-66.93,165.78c-7.51,18.52 -11.26,31.63 -11.26,39.33c0,4.3 1.99,7 5.97,8.11c3.97,1.12 13.94,2.34 29.89,3.67l0,20.35c-11.18,-1.04 -29.59,-1.57 -55.22,-1.57c-23.12,0 -39.56,0.53 -49.31,1.57l0,-20.35c14.46,-0.75 23.22,-2.24 26.27,-4.47c3.06,-2.24 8.84,-13.27 17.34,-33.1l27.73,-64.41l79.16,-193.89z" fill="url(#fill0)" fill-rule="evenodd" id="svg_3" stroke="#0546AF" stroke-linejoin="round" stroke-miterlimit="10" stroke-width="7"/>
   <text fill="#000000" fill-opacity="0" font-family="Arial,Arial_MSFontService,sans-serif" font-size="316.22" id="svg_4" x="26.82" y="401.7">Λ</text>
  </g>
 </g>
</svg>