<svg width="493" height="589" xmlns="http://www.w3.org/2000/svg" xmlns:xlink="http://www.w3.org/1999/xlink" xml:space="preserve" overflow="hidden"><defs><linearGradient x1="271.906" y1="2106.66" x2="271.906" y2="1556.66" gradientUnits="userSpaceOnUse" spreadMethod="reflect" id="fill0"><stop offset="0"/><stop offset="0.25"/><stop offset="0.49" stop-color="#009AD9"/><stop offset="0.69" stop-color="#00A9EC"/><stop offset="1" stop-color="#00B8FF"/></linearGradient></defs><g transform="translate(-61 -1540)"><path d="M456.804 1661.24C464.232 1661.24 471.659 1661.81 479.087 1662.94 486.515 1664.07 493.457 1665.61 499.916 1667.55 506.375 1669.49 512.107 1671.67 517.112 1674.09 522.117 1676.52 525.427 1678.54 527.041 1680.16 528.656 1681.77 529.746 1683.15 530.311 1684.28 530.876 1685.41 531.36 1686.91 531.763 1688.77 532.167 1690.63 532.449 1692.97 532.61 1695.8 532.772 1698.63 532.852 1702.15 532.851 1706.36 532.85 1711.05 532.728 1715.01 532.486 1718.24 532.243 1721.48 531.839 1724.15 531.273 1726.25 530.709 1728.35 529.901 1729.89 528.851 1730.86 527.801 1731.83 526.388 1732.31 524.612 1732.31 522.836 1732.31 520.011 1731.18 516.135 1728.92 512.26 1726.66 507.497 1724.19 501.846 1721.52 496.195 1718.85 489.656 1716.43 482.228 1714.25 474.8 1712.06 466.647 1710.97 457.766 1710.98 450.822 1710.98 444.767 1711.83 439.6 1713.53 434.433 1715.22 430.113 1717.57 426.641 1720.56 423.168 1723.55 420.585 1727.15 418.889 1731.36 417.192 1735.56 416.344 1740.01 416.343 1744.7 416.342 1751.66 418.239 1757.68 422.033 1762.77 425.826 1767.87 430.912 1772.4 437.29 1776.36 443.667 1780.32 450.893 1784.04 458.966 1787.51 467.039 1790.99 475.273 1794.67 483.669 1798.55 492.065 1802.43 500.3 1806.83 508.372 1811.77 516.446 1816.7 523.63 1822.6 529.927 1829.47 536.223 1836.34 541.308 1844.43 545.182 1853.73 549.056 1863.03 550.992 1873.98 550.991 1886.6 550.988 1903.09 547.918 1917.57 541.78 1930.02 535.642 1942.48 527.325 1952.87 516.828 1961.2 506.332 1969.53 494.058 1975.8 480.01 1980.01L460.499 1982.74 465.52 1927.31 471.662 1924.21C475.942 1920.81 479.212 1916.61 481.473 1911.6 483.734 1906.58 484.865 1901 484.866 1894.86 484.868 1887.74 482.931 1881.64 479.056 1876.54 475.182 1871.45 470.136 1866.92 463.921 1862.96 457.704 1859 450.64 1855.28 442.728 1851.8 434.817 1848.33 426.663 1844.65 418.267 1840.77L405.028 1833.61 357.693 1723.19 360.035 1712.08C365.607 1700.68 373.117 1691.22 382.564 1683.69 392.011 1676.17 403.154 1670.55 415.991 1666.83 428.829 1663.11 442.433 1661.25 456.804 1661.24Z" stroke="#00B050" stroke-width="4.58333" stroke-miterlimit="8" fill="#12E017" fill-rule="evenodd"/><path d="M258.323 1669.01 291.197 1669.01 392.279 1907.93C405.846 1939.96 414.232 1957.28 417.437 1959.87 420.643 1962.47 429.774 1964.14 444.832 1964.88L444.832 1985.23C422.476 1984.19 399.523 1983.66 375.974 1983.66 350.191 1983.66 325.672 1984.19 302.417 1985.23L302.417 1964.88C320.456 1964.43 330.78 1963.43 333.388 1961.88 335.996 1960.32 337.3 1958.07 337.3 1955.1 337.3 1951.25 334.17 1941.62 327.911 1926.21L254.678 1747.99 187.749 1913.77C180.243 1932.29 176.49 1945.4 176.49 1953.1 176.49 1957.4 178.479 1960.1 182.455 1961.21 186.432 1962.33 196.396 1963.55 212.349 1964.88L212.349 1985.23C201.167 1984.19 182.76 1983.66 157.129 1983.66 134.011 1983.66 117.574 1984.19 107.818 1985.23L107.818 1964.88C122.279 1964.13 131.038 1962.64 134.095 1960.41 137.151 1958.17 142.928 1947.14 151.426 1927.31L179.157 1862.9Z" stroke="#0546AF" stroke-width="7" stroke-linejoin="round" stroke-miterlimit="10" fill="url(#fill0)" fill-rule="evenodd"/><text fill="#000000" fill-opacity="0" font-family="Arial,Arial_MSFontService,sans-serif" font-size="316.217" x="107.818" y="1945.7">Λ</text></g></svg>